<svg xmlns="http://www.w3.org/2000/svg" viewBox="0 0 839.1 144" width="839.1" height="144"><g transform="translate(83.33 120) scale(1.14)"><path d="M-51.91 0A93.91 93.91 0 0 1 0 -84L0 -70.33A81.91 81.91 0 0 0 -39.91 0Z" fill="#14B8B0"/><path d="M-33.91 0A75.91 75.91 0 0 1 0 -63.24L0 -48.18A63.91 63.91 0 0 0 -21.91 0Z" fill="#8EDCA8"/><path d="M0 -84H12V-12H42V0H0Z" fill="#1F5FD6"/></g><path d="M179.17 51.84V88.13L175.03 84.1H205.3V92.16H170.03V51.84ZM244.81 68.51V75.49H215.94V68.51ZM222.07 72 219.38 89.1 215.4 84.58H246.48V92.16H210.19L213.31 72L210.19 51.84H246.21V59.42H215.4L219.38 54.9ZM291.85 86.14 288.68 86.62V51.84H297.55V92.16H285.99L260.19 57.38L263.3 56.89V92.16H254.49V51.84H266.31ZM328.84 51.84Q333.62 51.84 337.12 53.51Q340.61 55.17 342.47 58.18Q344.32 61.19 344.32 65.17Q344.32 69.15 342.47 72.13Q340.61 75.12 337.12 76.81Q333.62 78.5 328.84 78.5H311.04V70.98H328.35Q331.53 70.98 333.33 69.42Q335.13 67.86 335.13 65.17Q335.13 62.43 333.33 60.9Q331.53 59.37 328.35 59.37H311.85L315.99 55.01V92.16H306.85V51.84ZM357.33 83.67V76.25H385.29V83.67ZM377.38 51.84 396.25 92.16H386.52L370.02 55.55H373.03L356.52 92.16H346.79L365.66 51.84ZM410.82 51.84V88.13L406.68 84.1H436.95V92.16H401.68V51.84ZM464.69 92.97Q457.65 92.97 452.35 90.33Q447.06 87.7 444.1 82.99Q441.14 78.29 441.14 72Q441.14 65.71 444.1 61.01Q447.06 56.3 452.35 53.67Q457.65 51.03 464.69 51.03Q471.73 51.03 477.03 53.67Q482.32 56.3 485.28 61.01Q488.24 65.71 488.24 72Q488.24 78.29 485.28 82.99Q482.32 87.7 477.03 90.33Q471.73 92.97 464.69 92.97ZM464.69 84.85Q469.1 84.85 472.3 83.29Q475.5 81.73 477.24 78.83Q478.99 75.92 478.99 72Q478.99 68.08 477.24 65.17Q475.5 62.27 472.3 60.71Q469.1 59.15 464.69 59.15Q460.33 59.15 457.11 60.71Q453.88 62.27 452.14 65.17Q450.39 68.08 450.39 72Q450.39 75.92 452.14 78.83Q453.88 81.73 457.11 83.29Q460.33 84.85 464.69 84.85ZM532.96 86.14 529.79 86.62V51.84H538.66V92.16H527.1L501.3 57.38L504.42 56.89V92.16H495.6V51.84H507.43Z" fill="#0E1A2B"/><path d="M570.49 70.06H599.31V74.53H570.49ZM600.11 51.84V56.3H569.95L573.13 53.08V92.16H568.07V51.84ZM612.21 82.16V77.86H640.59V82.16ZM629.57 51.84 649.41 92.16H643.93L625.27 53.56H627.96L609.25 92.16H603.77L623.61 51.84ZM707.79 51.84V92.16H702.96V53.02L704.95 53.08L684.57 92.16H679.19L658.82 53.13L660.81 53.08V92.16H655.97V51.84H663.6L683.49 90.44H680.32L700.16 51.84ZM718.65 51.84H723.71V92.16H718.65ZM739.57 51.84V89.9L737.31 87.7H767.79V92.16H734.51V51.84ZM789.83 92.16V73.08H794.89V92.16ZM770.75 51.84H776.55L794.03 73.51H790.75L808.11 51.84H813.92L793.97 76.68L790.8 76.73Z" fill="#1F5FD6"/></svg>
